<svg xmlns="http://www.w3.org/2000/svg" width="259.558" height="31.203"><path fill="#91003c" d="M204.166 22.156a1.12 1.12 0 0 1 1.121-1.127h7.18a1.026 1.026 0 0 1 1.02.7 9 9 0 0 0 .314.922c.787 1.629 2.912 1.971 4.4 1.971 1.191 0 3.793-.687 3.793-2.494 0-1.561-1.1-2.057-6.408-3.539-4.869-1.346-10.617-3.344-10.617-9.434 0-6.975 6.268-9.152 12.609-9.152 3.992 0 11.043.83 12.078 7.955a1.185 1.185 0 0 1-1.213 1.389s-4.975-.008-5.98 0a1.275 1.275 0 0 1-1.469-.965 2.7 2.7 0 0 0-1.041-1.135 5.27 5.27 0 0 0-2.779-.672c-.807 0-3.508.311-3.508 2.006.168 2.148 5.025 2.615 9.385 3.8 4.031 1.092 8.258 3.58 8.258 8.705 0 7.266-7.023 10.121-13.771 10.121-5.729-.007-12.811-2.416-13.372-9.051m36.789 8.6a1.2 1.2 0 0 1-1.2-1.2V8.377h-7.627a1.2 1.2 0 0 1-1.191-1.2V1.729a1.2 1.2 0 0 1 1.191-1.2h24.326a1.194 1.194 0 0 1 1.191 1.2V7.18h.006a1.2 1.2 0 0 1-1.2 1.2h-7.621v21.179a1.193 1.193 0 0 1-1.189 1.2Zm-62.674 0a1.2 1.2 0 0 1-1.2-1.2V1.729a1.2 1.2 0 0 1 1.2-1.2h23.143v.01a1.19 1.19 0 0 1 1.191 1.2v5.447a1.19 1.19 0 0 1-1.191 1.191h-15.262v3.154h12.986a1.194 1.194 0 0 1 1.2 1.191v4.85a1.2 1.2 0 0 1-1.2 1.2h-12.986v4.139h15.262a1.2 1.2 0 0 1 1.191 1.2v5.451a1.2 1.2 0 0 1-1.191 1.2Zm-19.748 0a1.2 1.2 0 0 1-1.2-1.2V8.377H149.7a1.2 1.2 0 0 1-1.191-1.2V1.729A1.2 1.2 0 0 1 149.7.531h24.334a1.2 1.2 0 0 1 1.2 1.2V7.18a1.2 1.2 0 0 1-1.2 1.2h-7.619v21.179a1.2 1.2 0 0 1-1.191 1.2Zm-19.75 0a2.38 2.38 0 0 1-1.822-1.021l-8.781-14.128v13.952a1.2 1.2 0 0 1-1.189 1.2H120.3a1.2 1.2 0 0 1-1.191-1.2V1.729a1.206 1.206 0 0 1 1.176-1.2h6.387a2.38 2.38 0 0 1 1.814 1.02l9.1 14.68v-14.5a1.2 1.2 0 0 1 1.2-1.2h6.686a1.2 1.2 0 0 1 1.2 1.2v27.83a1.2 1.2 0 0 1-1.213 1.2Zm-28.082 0a1.85 1.85 0 0 1-1.6-1.127l-6.406-17.424-4.312 11.738h6.088a1.11 1.11 0 0 1 .971 1.4l-1.463 4.281a1.8 1.8 0 0 1-1.586 1.127H87.99a.784.784 0 0 1-.781-1.127L97.486 1.658A1.84 1.84 0 0 1 99.1.531h7.188a1.84 1.84 0 0 1 1.609 1.127l10.277 27.971a.781.781 0 0 1-.779 1.127Zm-35.387 0a1.85 1.85 0 0 1-1.609-1.127L63.428 1.658a.78.78 0 0 1 .781-1.127H70.9a1.84 1.84 0 0 1 1.609 1.127L78.66 18.4l6.154-16.742a1.84 1.84 0 0 1 1.61-1.127h6.689a.784.784 0 0 1 .781 1.127L83.607 29.629a1.84 1.84 0 0 1-1.6 1.127Zm-50.164 0a1.2 1.2 0 0 1-1.2-1.2V10.021L15.072 23.2H22c.9 0 .914.957.541 1.553S19.09 29.77 19.09 29.77a2.53 2.53 0 0 1-1.863.986H.7c-.652 0-.895-.447-.525-.992L19.127 1.529a2.5 2.5 0 0 1 1.865-1h10.85a1.2 1.2 0 0 1 1.2 1.2v27.83a1.2 1.2 0 0 1-1.2 1.2Zm23.412-.008h-10.7a1.2 1.2 0 0 1-1.191-1.189V1.729a1.2 1.2 0 0 1 1.191-1.2h10.7a24.6 24.6 0 0 1 6.756.787C59.65 2.629 65.348 6.2 65.363 15.643c-.015 10.142-5.756 13.457-10.05 14.587a24.5 24.5 0 0 1-5.684.523c-.453.001-.829-.005-1.066-.005Zm-2.812-7.492h3.877a7.7 7.7 0 0 0 2.814-.531c1.432-.687 3.863-2.488 3.863-6.975S54.2 9.377 52.4 8.674a7.4 7.4 0 0 0-2.656-.437h-4Z"/><path fill="#222" d="M251.254 27.043a4.151 4.151 0 1 1 4.15 4.15 4.146 4.146 0 0 1-4.15-4.15m.447 0a3.707 3.707 0 1 0 3.7-3.7 3.71 3.71 0 0 0-3.7 3.7m5.018 2.235a1.27 1.27 0 0 1-.121-.668c0-.834-.168-1.2-.9-1.2h-1.178v1.868h-.786v-4.539h2.163c.99 0 1.5.457 1.5 1.225a1.12 1.12 0 0 1-.743 1.15v.008c.273.035.672.246.672.961a2.06 2.06 0 0 0 .248 1.2Zm-2.194-2.473h1.309c.5 0 .773-.246.773-.725 0-.574-.381-.693-.795-.693h-1.287Z"/></svg>